%TF.GenerationSoftware,KiCad,Pcbnew,(5.1.6)-1*%
%TF.CreationDate,2021-04-02T22:19:38+08:00*%
%TF.ProjectId,loadcell1,6c6f6164-6365-46c6-9c31-2e6b69636164,rev?*%
%TF.SameCoordinates,Original*%
%TF.FileFunction,Copper,L2,Bot*%
%TF.FilePolarity,Positive*%
%FSLAX46Y46*%
G04 Gerber Fmt 4.6, Leading zero omitted, Abs format (unit mm)*
G04 Created by KiCad (PCBNEW (5.1.6)-1) date 2021-04-02 22:19:38*
%MOMM*%
%LPD*%
G01*
G04 APERTURE LIST*
%TA.AperFunction,ComponentPad*%
%ADD10R,1.600000X1.600000*%
%TD*%
%TA.AperFunction,ComponentPad*%
%ADD11O,1.600000X1.600000*%
%TD*%
%TA.AperFunction,ComponentPad*%
%ADD12C,1.600000*%
%TD*%
%TA.AperFunction,ComponentPad*%
%ADD13R,1.700000X1.700000*%
%TD*%
%TA.AperFunction,ComponentPad*%
%ADD14O,1.700000X1.700000*%
%TD*%
%TA.AperFunction,Conductor*%
%ADD15C,0.500000*%
%TD*%
G04 APERTURE END LIST*
D10*
%TO.P,U2,1*%
%TO.N,Net-(U1-Pad21)*%
X211074000Y-119380000D03*
D11*
%TO.P,U2,8*%
%TO.N,+3V3*%
X195834000Y-127000000D03*
%TO.P,U2,2*%
%TO.N,Net-(U1-Pad25)*%
X208534000Y-119380000D03*
%TO.P,U2,9*%
%TO.N,Net-(J3-Pad2)*%
X198374000Y-127000000D03*
%TO.P,U2,3*%
%TO.N,Net-(U1-Pad18)*%
X205994000Y-119380000D03*
%TO.P,U2,10*%
%TO.N,GND*%
X200914000Y-127000000D03*
%TO.P,U2,4*%
X203454000Y-119380000D03*
%TO.P,U2,11*%
%TO.N,+3V3*%
X203454000Y-127000000D03*
%TO.P,U2,5*%
%TO.N,Net-(U2-Pad5)*%
X200914000Y-119380000D03*
%TO.P,U2,12*%
%TO.N,+3V3*%
X205994000Y-127000000D03*
%TO.P,U2,6*%
%TO.N,Net-(U2-Pad6)*%
X198374000Y-119380000D03*
%TO.P,U2,13*%
%TO.N,Net-(U1-Pad26)*%
X208534000Y-127000000D03*
%TO.P,U2,7*%
%TO.N,Net-(U2-Pad7)*%
X195834000Y-119380000D03*
%TO.P,U2,14*%
%TO.N,+3V3*%
X211074000Y-127000000D03*
%TD*%
D10*
%TO.P,U1,1*%
%TO.N,Net-(J2-Pad1)*%
X152400000Y-127000000D03*
D11*
%TO.P,U1,15*%
%TO.N,Net-(U1-Pad15)*%
X185420000Y-119380000D03*
%TO.P,U1,2*%
%TO.N,Net-(J1-Pad2)*%
X154940000Y-127000000D03*
%TO.P,U1,16*%
%TO.N,Net-(U1-Pad16)*%
X182880000Y-119380000D03*
%TO.P,U1,3*%
%TO.N,Net-(J1-Pad3)*%
X157480000Y-127000000D03*
%TO.P,U1,17*%
%TO.N,Net-(U1-Pad17)*%
X180340000Y-119380000D03*
%TO.P,U1,4*%
%TO.N,Net-(U1-Pad4)*%
X160020000Y-127000000D03*
%TO.P,U1,18*%
%TO.N,Net-(U1-Pad18)*%
X177800000Y-119380000D03*
%TO.P,U1,5*%
%TO.N,Net-(U1-Pad5)*%
X162560000Y-127000000D03*
%TO.P,U1,19*%
%TO.N,GND*%
X175260000Y-119380000D03*
%TO.P,U1,6*%
%TO.N,Net-(U1-Pad6)*%
X165100000Y-127000000D03*
%TO.P,U1,20*%
%TO.N,+3V3*%
X172720000Y-119380000D03*
%TO.P,U1,7*%
%TO.N,Net-(U1-Pad7)*%
X167640000Y-127000000D03*
%TO.P,U1,21*%
%TO.N,Net-(U1-Pad21)*%
X170180000Y-119380000D03*
%TO.P,U1,8*%
%TO.N,GND*%
X170180000Y-127000000D03*
%TO.P,U1,22*%
%TO.N,Net-(U1-Pad22)*%
X167640000Y-119380000D03*
%TO.P,U1,9*%
%TO.N,Net-(U1-Pad9)*%
X172720000Y-127000000D03*
%TO.P,U1,23*%
%TO.N,Net-(U1-Pad23)*%
X165100000Y-119380000D03*
%TO.P,U1,10*%
%TO.N,Net-(U1-Pad10)*%
X175260000Y-127000000D03*
%TO.P,U1,24*%
%TO.N,Net-(U1-Pad24)*%
X162560000Y-119380000D03*
%TO.P,U1,11*%
%TO.N,Net-(U1-Pad11)*%
X177800000Y-127000000D03*
%TO.P,U1,25*%
%TO.N,Net-(U1-Pad25)*%
X160020000Y-119380000D03*
%TO.P,U1,12*%
%TO.N,Net-(U1-Pad12)*%
X180340000Y-127000000D03*
%TO.P,U1,26*%
%TO.N,Net-(U1-Pad26)*%
X157480000Y-119380000D03*
%TO.P,U1,13*%
%TO.N,Net-(U1-Pad13)*%
X182880000Y-127000000D03*
%TO.P,U1,27*%
%TO.N,Net-(J2-Pad5)*%
X154940000Y-119380000D03*
%TO.P,U1,14*%
%TO.N,Net-(U1-Pad14)*%
X185420000Y-127000000D03*
%TO.P,U1,28*%
%TO.N,Net-(J2-Pad4)*%
X152400000Y-119380000D03*
%TD*%
D12*
%TO.P,C1,1*%
%TO.N,+3V3*%
X172760000Y-114300000D03*
%TO.P,C1,2*%
%TO.N,GND*%
X175260000Y-114300000D03*
%TD*%
%TO.P,C2,2*%
%TO.N,GND*%
X215900000Y-121920000D03*
%TO.P,C2,1*%
%TO.N,+3V3*%
X215900000Y-124420000D03*
%TD*%
D13*
%TO.P,J1,1*%
%TO.N,+3V3*%
X152400000Y-134620000D03*
D14*
%TO.P,J1,2*%
%TO.N,Net-(J1-Pad2)*%
X154940000Y-134620000D03*
%TO.P,J1,3*%
%TO.N,Net-(J1-Pad3)*%
X157480000Y-134620000D03*
%TO.P,J1,4*%
%TO.N,GND*%
X160020000Y-134620000D03*
%TD*%
D13*
%TO.P,J2,1*%
%TO.N,Net-(J2-Pad1)*%
X152400000Y-111760000D03*
D14*
%TO.P,J2,2*%
%TO.N,+3V3*%
X154940000Y-111760000D03*
%TO.P,J2,3*%
%TO.N,GND*%
X157480000Y-111760000D03*
%TO.P,J2,4*%
%TO.N,Net-(J2-Pad4)*%
X160020000Y-111760000D03*
%TO.P,J2,5*%
%TO.N,Net-(J2-Pad5)*%
X162560000Y-111760000D03*
%TD*%
D13*
%TO.P,J3,1*%
%TO.N,GND*%
X200660000Y-134620000D03*
D14*
%TO.P,J3,2*%
%TO.N,Net-(J3-Pad2)*%
X198120000Y-134620000D03*
%TO.P,J3,3*%
%TO.N,+3V3*%
X195580000Y-134620000D03*
%TD*%
D12*
%TO.P,R1,1*%
%TO.N,Net-(J2-Pad1)*%
X144780000Y-127000000D03*
D11*
%TO.P,R1,2*%
%TO.N,+3V3*%
X144780000Y-137160000D03*
%TD*%
D15*
%TO.N,+3V3*%
X195834000Y-134366000D02*
X195580000Y-134620000D01*
X195834000Y-127000000D02*
X195834000Y-134366000D01*
X213320000Y-127000000D02*
X215900000Y-124420000D01*
X211074000Y-127000000D02*
X213320000Y-127000000D01*
X172720000Y-114340000D02*
X172760000Y-114300000D01*
X144780000Y-137160000D02*
X144780000Y-130810000D01*
X144780000Y-130810000D02*
X142240000Y-128270000D01*
X142240000Y-128270000D02*
X142240000Y-116840000D01*
X142240000Y-116840000D02*
X149860000Y-109220000D01*
X149860000Y-109220000D02*
X153670000Y-109220000D01*
X154940000Y-110490000D02*
X154940000Y-111760000D01*
X153670000Y-109220000D02*
X154940000Y-110490000D01*
X211074000Y-127000000D02*
X211074000Y-129286000D01*
X211074000Y-129286000D02*
X210820000Y-129540000D01*
X210820000Y-129540000D02*
X207010000Y-129540000D01*
X205994000Y-128524000D02*
X205994000Y-127000000D01*
X207010000Y-129540000D02*
X205994000Y-128524000D01*
X203454000Y-127000000D02*
X203454000Y-128524000D01*
X203454000Y-128524000D02*
X204470000Y-129540000D01*
X204470000Y-129540000D02*
X207010000Y-129540000D01*
X153670000Y-109220000D02*
X170815000Y-109220000D01*
X172760000Y-111165000D02*
X172760000Y-114300000D01*
X170815000Y-109220000D02*
X172760000Y-111165000D01*
X172720000Y-119380000D02*
X172720000Y-116840000D01*
X172720000Y-116840000D02*
X172720000Y-114340000D01*
X195834000Y-125476000D02*
X195834000Y-127000000D01*
X196215000Y-125095000D02*
X195834000Y-125476000D01*
X203454000Y-127000000D02*
X203454000Y-125349000D01*
X203454000Y-125349000D02*
X203200000Y-125095000D01*
X196215000Y-125095000D02*
X195580000Y-125095000D01*
X203200000Y-125095000D02*
X195580000Y-125095000D01*
X195580000Y-125095000D02*
X153035000Y-125095000D01*
X153035000Y-125095000D02*
X150495000Y-122555000D01*
X150495000Y-122555000D02*
X150495000Y-116840000D01*
X154940000Y-112395000D02*
X154940000Y-111760000D01*
X150495000Y-116840000D02*
X154940000Y-112395000D01*
X144780000Y-137160000D02*
X151765000Y-137160000D01*
X152400000Y-136525000D02*
X152400000Y-134620000D01*
X151765000Y-137160000D02*
X152400000Y-136525000D01*
%TO.N,GND*%
X160020000Y-134620000D02*
X160020000Y-132715000D01*
X160020000Y-132715000D02*
X163195000Y-129540000D01*
X163195000Y-129540000D02*
X168910000Y-129540000D01*
X170180000Y-128270000D02*
X170180000Y-127000000D01*
X168910000Y-129540000D02*
X170180000Y-128270000D01*
X200660000Y-127254000D02*
X200914000Y-127000000D01*
X215900000Y-121920000D02*
X217170000Y-121920000D01*
X217170000Y-121920000D02*
X217805000Y-122555000D01*
X217805000Y-122555000D02*
X217805000Y-128270000D01*
X200725010Y-130240010D02*
X200660000Y-130175000D01*
X217805000Y-128270000D02*
X215834990Y-130240010D01*
X200660000Y-134620000D02*
X200660000Y-130175000D01*
X215834990Y-130240010D02*
X200725010Y-130240010D01*
X200660000Y-130175000D02*
X200660000Y-127254000D01*
X215900000Y-121920000D02*
X215900000Y-119380000D01*
X215900000Y-119380000D02*
X210820000Y-114300000D01*
X175260000Y-114300000D02*
X175260000Y-116205000D01*
X175260000Y-116205000D02*
X175260000Y-119380000D01*
X203454000Y-114554000D02*
X203200000Y-114300000D01*
X210820000Y-114300000D02*
X203200000Y-114300000D01*
X203454000Y-119380000D02*
X203454000Y-114554000D01*
X203200000Y-114300000D02*
X175260000Y-114300000D01*
X157480000Y-111760000D02*
X157480000Y-110490000D01*
X157480000Y-110490000D02*
X158049990Y-109920010D01*
X158049990Y-109920010D02*
X168975010Y-109920010D01*
X168975010Y-109920010D02*
X171450000Y-112395000D01*
X171450000Y-112395000D02*
X171450000Y-120650000D01*
X171450000Y-120650000D02*
X172085000Y-121285000D01*
X172085000Y-121285000D02*
X174625000Y-121285000D01*
X175260000Y-120650000D02*
X175260000Y-119380000D01*
X174625000Y-121285000D02*
X175260000Y-120650000D01*
X160020000Y-137160000D02*
X160020000Y-134620000D01*
X158115000Y-139065000D02*
X160020000Y-137160000D01*
X142240000Y-139065000D02*
X158115000Y-139065000D01*
X141539990Y-129474990D02*
X141605000Y-129540000D01*
X141605000Y-138430000D02*
X142240000Y-139065000D01*
X175260000Y-111760000D02*
X172019990Y-108519990D01*
X175260000Y-114300000D02*
X175260000Y-111760000D01*
X141605000Y-129540000D02*
X141605000Y-138430000D01*
X141539990Y-116270010D02*
X141539990Y-129474990D01*
X172019990Y-108519990D02*
X149290010Y-108519990D01*
X149290010Y-108519990D02*
X141539990Y-116270010D01*
%TO.N,Net-(J1-Pad2)*%
X154940000Y-127000000D02*
X154940000Y-134620000D01*
%TO.N,Net-(J1-Pad3)*%
X157480000Y-127000000D02*
X157480000Y-134620000D01*
%TO.N,Net-(J2-Pad1)*%
X144780000Y-127000000D02*
X152400000Y-127000000D01*
X152400000Y-111760000D02*
X149860000Y-111760000D01*
X149860000Y-111760000D02*
X144780000Y-116840000D01*
X144780000Y-116840000D02*
X144780000Y-127000000D01*
%TO.N,Net-(J2-Pad4)*%
X159385000Y-114300000D02*
X160020000Y-113665000D01*
X152400000Y-119380000D02*
X152400000Y-116840000D01*
X160020000Y-113665000D02*
X160020000Y-111760000D01*
X154940000Y-114300000D02*
X159385000Y-114300000D01*
X152400000Y-116840000D02*
X154940000Y-114300000D01*
%TO.N,Net-(J2-Pad5)*%
X154940000Y-119380000D02*
X154940000Y-116840000D01*
X154940000Y-116840000D02*
X156210000Y-115570000D01*
X156210000Y-115570000D02*
X161290000Y-115570000D01*
X162560000Y-114300000D02*
X162560000Y-111760000D01*
X161290000Y-115570000D02*
X162560000Y-114300000D01*
%TO.N,Net-(J3-Pad2)*%
X198374000Y-134366000D02*
X198120000Y-134620000D01*
X198374000Y-127000000D02*
X198374000Y-134366000D01*
%TO.N,Net-(U1-Pad18)*%
X205994000Y-120396000D02*
X205994000Y-119380000D01*
X178435000Y-121285000D02*
X205105000Y-121285000D01*
X205105000Y-121285000D02*
X205994000Y-120396000D01*
X177800000Y-119380000D02*
X177800000Y-120650000D01*
X177800000Y-120650000D02*
X178435000Y-121285000D01*
%TO.N,Net-(U1-Pad21)*%
X211074000Y-119380000D02*
X211074000Y-121031000D01*
X210119990Y-121985010D02*
X170880010Y-121985010D01*
X211074000Y-121031000D02*
X210119990Y-121985010D01*
X170880010Y-121985010D02*
X170180000Y-121285000D01*
X170180000Y-121285000D02*
X170180000Y-119380000D01*
%TO.N,Net-(U1-Pad25)*%
X160020000Y-119380000D02*
X160020000Y-123059980D01*
X160020000Y-123059980D02*
X160655000Y-123694980D01*
X160655000Y-123694980D02*
X210950020Y-123694980D01*
X210950020Y-123694980D02*
X213360000Y-121285000D01*
X213360000Y-121285000D02*
X213360000Y-118745000D01*
X213360000Y-118745000D02*
X212090000Y-117475000D01*
X212090000Y-117475000D02*
X208915000Y-117475000D01*
X208534000Y-117856000D02*
X208534000Y-119380000D01*
X208915000Y-117475000D02*
X208534000Y-117856000D01*
%TO.N,Net-(U1-Pad26)*%
X208534000Y-127000000D02*
X208534000Y-124714000D01*
X208214990Y-124394990D02*
X159319990Y-124394990D01*
X208534000Y-124714000D02*
X208214990Y-124394990D01*
X157480000Y-122555000D02*
X157480000Y-119380000D01*
X159319990Y-124394990D02*
X157480000Y-122555000D01*
%TD*%
M02*
