M48
; DRILL file {KiCad (5.1.6)-1} date 04/02/21 22:10:54
; FORMAT={-:-/ absolute / inch / decimal}
; #@! TF.CreationDate,2021-04-02T22:10:54+08:00
; #@! TF.GenerationSoftware,Kicad,Pcbnew,(5.1.6)-1
FMAT,2
INCH
T1C0.0315
T2C0.0394
%
G90
G05
T1
X7.71Y-4.7
X7.71Y-5.0
X7.81Y-4.7
X7.81Y-5.0
X7.91Y-4.7
X7.91Y-5.0
X8.01Y-4.7
X8.01Y-5.0
X8.11Y-4.7
X8.11Y-5.0
X8.21Y-4.7
X8.21Y-5.0
X8.31Y-4.7
X8.31Y-5.0
X8.5Y-4.8
X8.5Y-4.8984
X6.0Y-4.7
X6.0Y-5.0
X6.1Y-4.7
X6.1Y-5.0
X6.2Y-4.7
X6.2Y-5.0
X6.3Y-4.7
X6.3Y-5.0
X6.4Y-4.7
X6.4Y-5.0
X6.5Y-4.7
X6.5Y-5.0
X6.6Y-4.7
X6.6Y-5.0
X6.7Y-4.7
X6.7Y-5.0
X6.8Y-4.7
X6.8Y-5.0
X6.9Y-4.7
X6.9Y-5.0
X7.0Y-4.7
X7.0Y-5.0
X7.1Y-4.7
X7.1Y-5.0
X7.2Y-4.7
X7.2Y-5.0
X7.3Y-4.7
X7.3Y-5.0
X6.8016Y-4.5
X6.9Y-4.5
X5.7Y-5.0
X5.7Y-5.4
T2
X7.7Y-5.3
X7.8Y-5.3
X7.9Y-5.3
X6.0Y-5.3
X6.1Y-5.3
X6.2Y-5.3
X6.3Y-5.3
X6.0Y-4.4
X6.1Y-4.4
X6.2Y-4.4
X6.3Y-4.4
X6.4Y-4.4
T0
M30
