%TF.GenerationSoftware,KiCad,Pcbnew,(5.1.6)-1*%
%TF.CreationDate,2021-04-02T22:09:48+08:00*%
%TF.ProjectId,loadcell1,6c6f6164-6365-46c6-9c31-2e6b69636164,rev?*%
%TF.SameCoordinates,Original*%
%TF.FileFunction,Legend,Top*%
%TF.FilePolarity,Positive*%
%FSLAX46Y46*%
G04 Gerber Fmt 4.6, Leading zero omitted, Abs format (unit mm)*
G04 Created by KiCad (PCBNEW (5.1.6)-1) date 2021-04-02 22:09:48*
%MOMM*%
%LPD*%
G01*
G04 APERTURE LIST*
%ADD10C,0.120000*%
%ADD11C,0.150000*%
G04 APERTURE END LIST*
D10*
%TO.C,U2*%
X212464000Y-128330000D02*
X212464000Y-118050000D01*
X194444000Y-128330000D02*
X212464000Y-128330000D01*
X194444000Y-118050000D02*
X194444000Y-128330000D01*
X212464000Y-118050000D02*
X194444000Y-118050000D01*
X212404000Y-125840000D02*
X212404000Y-124190000D01*
X194504000Y-125840000D02*
X212404000Y-125840000D01*
X194504000Y-120540000D02*
X194504000Y-125840000D01*
X212404000Y-120540000D02*
X194504000Y-120540000D01*
X212404000Y-122190000D02*
X212404000Y-120540000D01*
X212404000Y-124190000D02*
G75*
G02*
X212404000Y-122190000I0J1000000D01*
G01*
%TO.C,U1*%
X151010000Y-118050000D02*
X151010000Y-128330000D01*
X186810000Y-118050000D02*
X151010000Y-118050000D01*
X186810000Y-128330000D02*
X186810000Y-118050000D01*
X151010000Y-128330000D02*
X186810000Y-128330000D01*
X151070000Y-120540000D02*
X151070000Y-122190000D01*
X186750000Y-120540000D02*
X151070000Y-120540000D01*
X186750000Y-125840000D02*
X186750000Y-120540000D01*
X151070000Y-125840000D02*
X186750000Y-125840000D01*
X151070000Y-124190000D02*
X151070000Y-125840000D01*
X151070000Y-122190000D02*
G75*
G02*
X151070000Y-124190000I0J-1000000D01*
G01*
%TO.C,C1*%
X173381000Y-115220000D02*
X174639000Y-115220000D01*
X173381000Y-113380000D02*
X174639000Y-113380000D01*
%TO.C,C2*%
X214980000Y-123799000D02*
X214980000Y-122541000D01*
X216820000Y-123799000D02*
X216820000Y-122541000D01*
%TO.C,J1*%
X151070000Y-135950000D02*
X151070000Y-134620000D01*
X152400000Y-135950000D02*
X151070000Y-135950000D01*
X153670000Y-135950000D02*
X153670000Y-133290000D01*
X153670000Y-133290000D02*
X161350000Y-133290000D01*
X153670000Y-135950000D02*
X161350000Y-135950000D01*
X161350000Y-135950000D02*
X161350000Y-133290000D01*
%TO.C,J2*%
X151070000Y-113090000D02*
X151070000Y-111760000D01*
X152400000Y-113090000D02*
X151070000Y-113090000D01*
X153670000Y-113090000D02*
X153670000Y-110430000D01*
X153670000Y-110430000D02*
X163890000Y-110430000D01*
X153670000Y-113090000D02*
X163890000Y-113090000D01*
X163890000Y-113090000D02*
X163890000Y-110430000D01*
%TO.C,J3*%
X201990000Y-133290000D02*
X201990000Y-134620000D01*
X200660000Y-133290000D02*
X201990000Y-133290000D01*
X199390000Y-133290000D02*
X199390000Y-135950000D01*
X199390000Y-135950000D02*
X194250000Y-135950000D01*
X199390000Y-133290000D02*
X194250000Y-133290000D01*
X194250000Y-133290000D02*
X194250000Y-135950000D01*
%TO.C,R1*%
X144780000Y-136120000D02*
X144780000Y-135350000D01*
X144780000Y-128040000D02*
X144780000Y-128810000D01*
X146150000Y-135350000D02*
X146150000Y-128810000D01*
X143410000Y-135350000D02*
X146150000Y-135350000D01*
X143410000Y-128810000D02*
X143410000Y-135350000D01*
X146150000Y-128810000D02*
X143410000Y-128810000D01*
%TO.C,U2*%
D11*
X212856380Y-123951904D02*
X213665904Y-123951904D01*
X213761142Y-123904285D01*
X213808761Y-123856666D01*
X213856380Y-123761428D01*
X213856380Y-123570952D01*
X213808761Y-123475714D01*
X213761142Y-123428095D01*
X213665904Y-123380476D01*
X212856380Y-123380476D01*
X212951619Y-122951904D02*
X212904000Y-122904285D01*
X212856380Y-122809047D01*
X212856380Y-122570952D01*
X212904000Y-122475714D01*
X212951619Y-122428095D01*
X213046857Y-122380476D01*
X213142095Y-122380476D01*
X213284952Y-122428095D01*
X213856380Y-122999523D01*
X213856380Y-122380476D01*
%TO.C,U1*%
X149522380Y-123951904D02*
X150331904Y-123951904D01*
X150427142Y-123904285D01*
X150474761Y-123856666D01*
X150522380Y-123761428D01*
X150522380Y-123570952D01*
X150474761Y-123475714D01*
X150427142Y-123428095D01*
X150331904Y-123380476D01*
X149522380Y-123380476D01*
X150522380Y-122380476D02*
X150522380Y-122951904D01*
X150522380Y-122666190D02*
X149522380Y-122666190D01*
X149665238Y-122761428D01*
X149760476Y-122856666D01*
X149808095Y-122951904D01*
%TO.C,C1*%
X173843333Y-112607142D02*
X173795714Y-112654761D01*
X173652857Y-112702380D01*
X173557619Y-112702380D01*
X173414761Y-112654761D01*
X173319523Y-112559523D01*
X173271904Y-112464285D01*
X173224285Y-112273809D01*
X173224285Y-112130952D01*
X173271904Y-111940476D01*
X173319523Y-111845238D01*
X173414761Y-111750000D01*
X173557619Y-111702380D01*
X173652857Y-111702380D01*
X173795714Y-111750000D01*
X173843333Y-111797619D01*
X174795714Y-112702380D02*
X174224285Y-112702380D01*
X174510000Y-112702380D02*
X174510000Y-111702380D01*
X174414761Y-111845238D01*
X174319523Y-111940476D01*
X174224285Y-111988095D01*
%TO.C,C2*%
X214207142Y-123336666D02*
X214254761Y-123384285D01*
X214302380Y-123527142D01*
X214302380Y-123622380D01*
X214254761Y-123765238D01*
X214159523Y-123860476D01*
X214064285Y-123908095D01*
X213873809Y-123955714D01*
X213730952Y-123955714D01*
X213540476Y-123908095D01*
X213445238Y-123860476D01*
X213350000Y-123765238D01*
X213302380Y-123622380D01*
X213302380Y-123527142D01*
X213350000Y-123384285D01*
X213397619Y-123336666D01*
X213397619Y-122955714D02*
X213350000Y-122908095D01*
X213302380Y-122812857D01*
X213302380Y-122574761D01*
X213350000Y-122479523D01*
X213397619Y-122431904D01*
X213492857Y-122384285D01*
X213588095Y-122384285D01*
X213730952Y-122431904D01*
X214302380Y-123003333D01*
X214302380Y-122384285D01*
%TO.C,J1*%
X149522380Y-134953333D02*
X150236666Y-134953333D01*
X150379523Y-135000952D01*
X150474761Y-135096190D01*
X150522380Y-135239047D01*
X150522380Y-135334285D01*
X150522380Y-133953333D02*
X150522380Y-134524761D01*
X150522380Y-134239047D02*
X149522380Y-134239047D01*
X149665238Y-134334285D01*
X149760476Y-134429523D01*
X149808095Y-134524761D01*
%TO.C,J2*%
X149522380Y-112093333D02*
X150236666Y-112093333D01*
X150379523Y-112140952D01*
X150474761Y-112236190D01*
X150522380Y-112379047D01*
X150522380Y-112474285D01*
X149617619Y-111664761D02*
X149570000Y-111617142D01*
X149522380Y-111521904D01*
X149522380Y-111283809D01*
X149570000Y-111188571D01*
X149617619Y-111140952D01*
X149712857Y-111093333D01*
X149808095Y-111093333D01*
X149950952Y-111140952D01*
X150522380Y-111712380D01*
X150522380Y-111093333D01*
%TO.C,J3*%
X202442380Y-134953333D02*
X203156666Y-134953333D01*
X203299523Y-135000952D01*
X203394761Y-135096190D01*
X203442380Y-135239047D01*
X203442380Y-135334285D01*
X202442380Y-134572380D02*
X202442380Y-133953333D01*
X202823333Y-134286666D01*
X202823333Y-134143809D01*
X202870952Y-134048571D01*
X202918571Y-134000952D01*
X203013809Y-133953333D01*
X203251904Y-133953333D01*
X203347142Y-134000952D01*
X203394761Y-134048571D01*
X203442380Y-134143809D01*
X203442380Y-134429523D01*
X203394761Y-134524761D01*
X203347142Y-134572380D01*
%TO.C,R1*%
X147602380Y-132246666D02*
X147126190Y-132580000D01*
X147602380Y-132818095D02*
X146602380Y-132818095D01*
X146602380Y-132437142D01*
X146650000Y-132341904D01*
X146697619Y-132294285D01*
X146792857Y-132246666D01*
X146935714Y-132246666D01*
X147030952Y-132294285D01*
X147078571Y-132341904D01*
X147126190Y-132437142D01*
X147126190Y-132818095D01*
X147602380Y-131294285D02*
X147602380Y-131865714D01*
X147602380Y-131580000D02*
X146602380Y-131580000D01*
X146745238Y-131675238D01*
X146840476Y-131770476D01*
X146888095Y-131865714D01*
%TD*%
M02*
