%TF.GenerationSoftware,KiCad,Pcbnew,(5.1.6)-1*%
%TF.CreationDate,2021-04-02T22:19:38+08:00*%
%TF.ProjectId,loadcell1,6c6f6164-6365-46c6-9c31-2e6b69636164,rev?*%
%TF.SameCoordinates,Original*%
%TF.FileFunction,Legend,Bot*%
%TF.FilePolarity,Positive*%
%FSLAX46Y46*%
G04 Gerber Fmt 4.6, Leading zero omitted, Abs format (unit mm)*
G04 Created by KiCad (PCBNEW (5.1.6)-1) date 2021-04-02 22:19:38*
%MOMM*%
%LPD*%
G01*
G04 APERTURE LIST*
%ADD10C,0.150000*%
G04 APERTURE END LIST*
D10*
X211000000Y-106357142D02*
X211000000Y-108500000D01*
X211142857Y-108928571D01*
X211428571Y-109214285D01*
X211857142Y-109357142D01*
X212142857Y-109357142D01*
X209714285Y-108500000D02*
X208285714Y-108500000D01*
X210000000Y-109357142D02*
X209000000Y-106357142D01*
X208000000Y-109357142D01*
X206428571Y-107928571D02*
X206428571Y-109357142D01*
X207428571Y-106357142D02*
X206428571Y-107928571D01*
X205428571Y-106357142D01*
X204857142Y-106357142D02*
X203142857Y-106357142D01*
X204000000Y-109357142D02*
X204000000Y-106357142D01*
X200428571Y-109357142D02*
X201428571Y-107928571D01*
X202142857Y-109357142D02*
X202142857Y-106357142D01*
X201000000Y-106357142D01*
X200714285Y-106500000D01*
X200571428Y-106642857D01*
X200428571Y-106928571D01*
X200428571Y-107357142D01*
X200571428Y-107642857D01*
X200714285Y-107785714D01*
X201000000Y-107928571D01*
X202142857Y-107928571D01*
X198571428Y-106357142D02*
X198000000Y-106357142D01*
X197714285Y-106500000D01*
X197428571Y-106785714D01*
X197285714Y-107357142D01*
X197285714Y-108357142D01*
X197428571Y-108928571D01*
X197714285Y-109214285D01*
X198000000Y-109357142D01*
X198571428Y-109357142D01*
X198857142Y-109214285D01*
X199142857Y-108928571D01*
X199285714Y-108357142D01*
X199285714Y-107357142D01*
X199142857Y-106785714D01*
X198857142Y-106500000D01*
X198571428Y-106357142D01*
X196000000Y-109357142D02*
X196000000Y-106357142D01*
X194285714Y-109357142D01*
X194285714Y-106357142D01*
X192857142Y-109357142D02*
X192857142Y-106357142D01*
X189714285Y-109071428D02*
X189857142Y-109214285D01*
X190285714Y-109357142D01*
X190571428Y-109357142D01*
X191000000Y-109214285D01*
X191285714Y-108928571D01*
X191428571Y-108642857D01*
X191571428Y-108071428D01*
X191571428Y-107642857D01*
X191428571Y-107071428D01*
X191285714Y-106785714D01*
X191000000Y-106500000D01*
X190571428Y-106357142D01*
X190285714Y-106357142D01*
X189857142Y-106500000D01*
X189714285Y-106642857D01*
X186285714Y-106642857D02*
X186142857Y-106500000D01*
X185857142Y-106357142D01*
X185142857Y-106357142D01*
X184857142Y-106500000D01*
X184714285Y-106642857D01*
X184571428Y-106928571D01*
X184571428Y-107214285D01*
X184714285Y-107642857D01*
X186428571Y-109357142D01*
X184571428Y-109357142D01*
X182714285Y-106357142D02*
X182428571Y-106357142D01*
X182142857Y-106500000D01*
X182000000Y-106642857D01*
X181857142Y-106928571D01*
X181714285Y-107500000D01*
X181714285Y-108214285D01*
X181857142Y-108785714D01*
X182000000Y-109071428D01*
X182142857Y-109214285D01*
X182428571Y-109357142D01*
X182714285Y-109357142D01*
X183000000Y-109214285D01*
X183142857Y-109071428D01*
X183285714Y-108785714D01*
X183428571Y-108214285D01*
X183428571Y-107500000D01*
X183285714Y-106928571D01*
X183142857Y-106642857D01*
X183000000Y-106500000D01*
X182714285Y-106357142D01*
X180571428Y-106642857D02*
X180428571Y-106500000D01*
X180142857Y-106357142D01*
X179428571Y-106357142D01*
X179142857Y-106500000D01*
X179000000Y-106642857D01*
X178857142Y-106928571D01*
X178857142Y-107214285D01*
X179000000Y-107642857D01*
X180714285Y-109357142D01*
X178857142Y-109357142D01*
X176000000Y-109357142D02*
X177714285Y-109357142D01*
X176857142Y-109357142D02*
X176857142Y-106357142D01*
X177142857Y-106785714D01*
X177428571Y-107071428D01*
X177714285Y-107214285D01*
M02*
